<svg
                        version="1.1"
                        id="Layer_1"
                        xmlns="http://www.w3.org/2000/svg"
                        xmlns:xlink="http://www.w3.org/1999/xlink"
                        x="0px"
                        y="0px"
                        viewBox="0 0 818.1 158.7"
                        style="enable-background: new 0 0 818.1 158.7"
                        xml:space="preserve"
                      >
                        <style type="text/css">
                          .st0 {
                            fill: #00a5db;
                          }
                          .st1 {
                            fill: #d6dbdf;
                          }
                        </style>
                        <g>
                          <g>
                            <path
                              class="st0"
                              d="M113.4,0.2L58.5,30.3c-0.4,0.2-1,0.2-1.4,0L2.2,0.2c-1.3-0.7-2.7,0.7-1.9,2l56.3,88.5c0.6,0.9,1.9,0.9,2.5,0
      l56.3-88.5C116.1,1,114.7-0.5,113.4,0.2z"
                            />
                            <g>
                              <path
                                class="st0"
                                d="M55.9,96.7c0-0.3-0.1-0.5-0.2-0.7l-33.9-53c-0.7-1-2.1-0.8-2.5,0.2L2.6,81.8c-0.2,0.4-0.1,1,0.1,1.3
        L53.3,158c0.8,1.2,2.6,0.6,2.6-0.8V96.7z"
                              />
                              <path
                                class="st0"
                                d="M112.9,81.8L96.3,43.2c-0.4-1-1.9-1.2-2.5-0.2l-33.9,53c-0.1,0.2-0.2,0.5-0.2,0.7v60.6c0,1.4,1.9,2,2.6,0.8
        l50.6-74.8C113.1,82.8,113.2,82.3,112.9,81.8z"
                              />
                            </g>
                          </g>
                          <g>
                            <path
                              class="st1"
                              d="M182.8,35.4v28.2h28.8c17.2,0,28.1,10.6,28.1,32.5s-10.8,32.5-28.1,32.5h-18c-15.6,0-23.9-9.1-23.9-27.8V35.4
      H182.8z M182.8,76.2v24c0,11.1,4.1,15.8,14.7,15.8h12.8c11.3,0,16.3-5.8,16.3-19.8s-4.9-20-16.3-20H182.8L182.8,76.2z"
                            />
                            <path
                              class="st1"
                              d="M292.6,63.6c17.2,0,28.2,10.6,28.2,32.5s-11,32.5-28.2,32.5h-13.7c-17.4,0-28.2-10.6-28.2-32.5
      s10.8-32.5,28.2-32.5L292.6,63.6L292.6,63.6z M280.1,76.2c-11.3,0-16.3,5.9-16.3,20c0,14,4.9,19.8,16.3,19.8h11.2
      c11.2,0,16.3-5.8,16.3-19.8s-5-20-16.3-20H280.1z"
                            />
                            <path
                              class="st1"
                              d="M377.9,63.6c15.5,0,23.9,9.1,23.9,27.8v37.4c0,18.5-6.4,25.7-24.6,25.7h-38.7v-12.6h37.2
      c9.7,0,12.9-3.8,12.9-13.2v-3h-28.7c-17.4,0-28.2-10.2-28.2-31.3c0-20.9,10.8-31,28.2-31L377.9,63.6L377.9,63.6z M361.2,114.1
      h27.5V91.4c0-10.6-4.1-15.1-14.5-15.1h-12.9c-11.2,0-16.3,5.7-16.3,19C344.9,108.5,350,114.1,361.2,114.1z"
                            />
                            <path
                              class="st1"
                              d="M460.1,63.6c16.3,0,22.7,9.1,22.7,21.4v30.5c0,9.4-2.5,13.1-13.4,13.1H439c-15.4,0-21.8-7.5-21.8-19.8
      c0-11.8,5.9-18.7,21.9-18.7H470v-4.9c0-5-2.8-9-10-9h-38.9V63.6H460.1L460.1,63.6z M469.9,112.7v-12.2h-30.6
      c-6.9,0-9.4,2.8-9.4,7.6s2.6,7.9,9.1,7.9h27.3C469,116,469.9,115,469.9,112.7z"
                            />
                            <path
                              class="st1"
                              d="M544.2,63.6c11.3,0,16.7,5.9,16.7,14.9c0,8-4.3,13.2-11.1,15.6l-37.3,13.5c-2.2,0.9-3.4,2.3-3.4,4.4
      c0,2.5,1.6,3.9,4.9,3.9h45.6v12.6h-46.3c-11.2,0-16.7-5.9-16.7-14.9c0-7.3,3.6-13.1,11.1-15.8l37.4-13.4c2.7-1,3.4-2.8,3.4-4.6
      c0-2.5-1.6-3.8-5-3.8h-44.6V63.4h45.3V63.6z"
                            />
                            <path
                              class="st1"
                              d="M588.1,39.1v15.1h-13.2V39.1H588.1z M588,63.6v65h-13.1v-65L588,63.6L588,63.6z"
                            />
                            <path
                              class="st1"
                              d="M663.7,63.6v12.6h-32.3c-11.3,0-16.3,5.9-16.3,20c0,14,4.9,19.8,16.3,19.8h32.3v12.7h-33.5
      c-17.4,0-28.2-10.6-28.2-32.5s10.8-32.5,28.2-32.5L663.7,63.6L663.7,63.6z"
                            />
                            <path
                              class="st1"
                              d="M690.8,39.1v15.1h-13.2V39.1H690.8z M690.7,63.6v65h-13.1v-65L690.7,63.6L690.7,63.6z"
                            />
                            <path
                              class="st0"
                              d="M716.8,128.7h-16L730,54.8c3.1-7.8,8.7-10.7,17.5-10.7c8.6,0,14.3,3,17.2,10.7l28.1,73.9h-16.1l-25.2-66.9
      c-0.7-2-2.1-2.8-4.1-2.8s-3.3,0.9-4.2,2.8L716.8,128.7z"
                            />
                            <path
                              class="st0"
                              d="M818.1,45.5v83.1h-14.5V45.5H818.1z"
                            />
                          </g>
                        </g>
                      </svg>